<?xml version="1.0" encoding="UTF-8" standalone="no"?>
<!DOCTYPE svg PUBLIC "-//W3C//DTD SVG 1.1//EN"
 "http://www.w3.org/Graphics/SVG/1.1/DTD/svg11.dtd">
<!-- Generated by graphviz version 5.0.0 (20220707.1540)
 -->
<!-- Title: dependencies Pages: 1 -->
<svg width="2097pt" height="247pt"
 viewBox="0.00 0.00 2097.00 246.80" xmlns="http://www.w3.org/2000/svg" xmlns:xlink="http://www.w3.org/1999/xlink">
<g id="graph0" class="graph" transform="scale(1 1) rotate(0) translate(4 242.8)">
<title>dependencies</title>
<polygon fill="white" stroke="transparent" points="-4,4 -4,-242.8 2093,-242.8 2093,4 -4,4"/>
<text text-anchor="middle" x="1044.5" y="-8.2" font-family="sans-serif" font-size="14.00">dependencies</text>
<g id="clust1" class="cluster">
<title>cluster_AppModule</title>
<polygon fill="none" stroke="black" stroke-dasharray="1,5" points="8,-32.8 8,-230.8 2081,-230.8 2081,-32.8 8,-32.8"/>
</g>
<g id="clust18" class="cluster">
<title>cluster_AppModule_providers</title>
<polygon fill="none" stroke="black" points="1911,-40.8 1911,-92.8 2073,-92.8 2073,-40.8 1911,-40.8"/>
</g>
<g id="clust17" class="cluster">
<title>cluster_AppModule_bootstrap</title>
<polygon fill="none" stroke="black" points="1066,-170.8 1066,-222.8 1190,-222.8 1190,-170.8 1066,-170.8"/>
</g>
<g id="clust15" class="cluster">
<title>cluster_AppModule_imports</title>
<polygon fill="none" stroke="black" points="1759,-40.8 1759,-92.8 1903,-92.8 1903,-40.8 1759,-40.8"/>
</g>
<g id="clust2" class="cluster">
<title>cluster_AppModule_declarations</title>
<polygon fill="none" stroke="black" points="16,-40.8 16,-92.8 1751,-92.8 1751,-40.8 16,-40.8"/>
</g>
<!-- AboutUsComponent -->
<g id="node1" class="node">
<title>AboutUsComponent</title>
<polygon fill="#ffffb3" stroke="black" points="1742.89,-84.8 1611.11,-84.8 1611.11,-48.8 1742.89,-48.8 1742.89,-84.8"/>
<text text-anchor="middle" x="1677" y="-62.6" font-family="Times,serif" font-size="14.00">AboutUsComponent</text>
</g>
<!-- AppModule -->
<g id="node13" class="node">
<title>AppModule</title>
<polygon fill="#8dd3c7" stroke="black" points="1169.66,-149.8 1166.66,-153.8 1145.66,-153.8 1142.66,-149.8 1086.34,-149.8 1086.34,-113.8 1169.66,-113.8 1169.66,-149.8"/>
<text text-anchor="middle" x="1128" y="-127.6" font-family="Times,serif" font-size="14.00">AppModule</text>
</g>
<!-- AboutUsComponent&#45;&gt;AppModule -->
<g id="edge1" class="edge">
<title>AboutUsComponent&#45;&gt;AppModule</title>
<path fill="none" stroke="black" d="M1677,-84.91C1677,-104.14 1677,-131.8 1677,-131.8 1677,-131.8 1179.71,-131.8 1179.71,-131.8"/>
<polygon fill="black" stroke="black" points="1179.71,-128.3 1169.71,-131.8 1179.71,-135.3 1179.71,-128.3"/>
</g>
<!-- AppComponent -->
<g id="node2" class="node">
<title>AppComponent</title>
<polygon fill="#ffffb3" stroke="black" points="1592.94,-84.8 1487.06,-84.8 1487.06,-48.8 1592.94,-48.8 1592.94,-84.8"/>
<text text-anchor="middle" x="1540" y="-62.6" font-family="Times,serif" font-size="14.00">AppComponent</text>
</g>
<!-- AppComponent&#45;&gt;AppModule -->
<g id="edge2" class="edge">
<title>AppComponent&#45;&gt;AppModule</title>
<path fill="none" stroke="black" d="M1540,-85.1C1540,-103.07 1540,-127.8 1540,-127.8 1540,-127.8 1179.77,-127.8 1179.77,-127.8"/>
<polygon fill="black" stroke="black" points="1179.77,-124.3 1169.77,-127.8 1179.77,-131.3 1179.77,-124.3"/>
</g>
<!-- LoginComponent -->
<g id="node3" class="node">
<title>LoginComponent</title>
<polygon fill="#ffffb3" stroke="black" points="1469.27,-84.8 1354.73,-84.8 1354.73,-48.8 1469.27,-48.8 1469.27,-84.8"/>
<text text-anchor="middle" x="1412" y="-62.6" font-family="Times,serif" font-size="14.00">LoginComponent</text>
</g>
<!-- LoginComponent&#45;&gt;AppModule -->
<g id="edge3" class="edge">
<title>LoginComponent&#45;&gt;AppModule</title>
<path fill="none" stroke="black" d="M1412,-84.83C1412,-101.2 1412,-122.8 1412,-122.8 1412,-122.8 1179.91,-122.8 1179.91,-122.8"/>
<polygon fill="black" stroke="black" points="1179.91,-119.3 1169.91,-122.8 1179.91,-126.3 1179.91,-119.3"/>
</g>
<!-- NavbarComponent -->
<g id="node4" class="node">
<title>NavbarComponent</title>
<polygon fill="#ffffb3" stroke="black" points="1336.03,-84.8 1213.97,-84.8 1213.97,-48.8 1336.03,-48.8 1336.03,-84.8"/>
<text text-anchor="middle" x="1275" y="-62.6" font-family="Times,serif" font-size="14.00">NavbarComponent</text>
</g>
<!-- NavbarComponent&#45;&gt;AppModule -->
<g id="edge4" class="edge">
<title>NavbarComponent&#45;&gt;AppModule</title>
<path fill="none" stroke="black" d="M1275,-84.99C1275,-99.98 1275,-118.8 1275,-118.8 1275,-118.8 1179.73,-118.8 1179.73,-118.8"/>
<polygon fill="black" stroke="black" points="1179.73,-115.3 1169.73,-118.8 1179.73,-122.3 1179.73,-115.3"/>
</g>
<!-- NotfoundComponent -->
<g id="node5" class="node">
<title>NotfoundComponent</title>
<polygon fill="#ffffb3" stroke="black" points="1195.49,-84.8 1060.51,-84.8 1060.51,-48.8 1195.49,-48.8 1195.49,-84.8"/>
<text text-anchor="middle" x="1128" y="-62.6" font-family="Times,serif" font-size="14.00">NotfoundComponent</text>
</g>
<!-- NotfoundComponent&#45;&gt;AppModule -->
<g id="edge5" class="edge">
<title>NotfoundComponent&#45;&gt;AppModule</title>
<path fill="none" stroke="black" d="M1128,-84.91C1128,-84.91 1128,-103.79 1128,-103.79"/>
<polygon fill="black" stroke="black" points="1124.5,-103.79 1128,-113.79 1131.5,-103.79 1124.5,-103.79"/>
</g>
<!-- QouteComponent -->
<g id="node6" class="node">
<title>QouteComponent</title>
<polygon fill="#ffffb3" stroke="black" points="1042.55,-84.8 927.45,-84.8 927.45,-48.8 1042.55,-48.8 1042.55,-84.8"/>
<text text-anchor="middle" x="985" y="-62.6" font-family="Times,serif" font-size="14.00">QouteComponent</text>
</g>
<!-- QouteComponent&#45;&gt;AppModule -->
<g id="edge6" class="edge">
<title>QouteComponent&#45;&gt;AppModule</title>
<path fill="none" stroke="black" d="M985,-84.99C985,-99.98 985,-118.8 985,-118.8 985,-118.8 1076.25,-118.8 1076.25,-118.8"/>
<polygon fill="black" stroke="black" points="1076.25,-122.3 1086.25,-118.8 1076.25,-115.3 1076.25,-122.3"/>
</g>
<!-- RegisterComponent -->
<g id="node7" class="node">
<title>RegisterComponent</title>
<polygon fill="#ffffb3" stroke="black" points="908.99,-84.8 781.01,-84.8 781.01,-48.8 908.99,-48.8 908.99,-84.8"/>
<text text-anchor="middle" x="845" y="-62.6" font-family="Times,serif" font-size="14.00">RegisterComponent</text>
</g>
<!-- RegisterComponent&#45;&gt;AppModule -->
<g id="edge7" class="edge">
<title>RegisterComponent&#45;&gt;AppModule</title>
<path fill="none" stroke="black" d="M845,-84.83C845,-101.2 845,-122.8 845,-122.8 845,-122.8 1076.24,-122.8 1076.24,-122.8"/>
<polygon fill="black" stroke="black" points="1076.24,-126.3 1086.24,-122.8 1076.24,-119.3 1076.24,-126.3"/>
</g>
<!-- TodoComponent -->
<g id="node8" class="node">
<title>TodoComponent</title>
<polygon fill="#ffffb3" stroke="black" points="763.38,-84.8 652.62,-84.8 652.62,-48.8 763.38,-48.8 763.38,-84.8"/>
<text text-anchor="middle" x="708" y="-62.6" font-family="Times,serif" font-size="14.00">TodoComponent</text>
</g>
<!-- TodoComponent&#45;&gt;AppModule -->
<g id="edge8" class="edge">
<title>TodoComponent&#45;&gt;AppModule</title>
<path fill="none" stroke="black" d="M708,-85.1C708,-103.07 708,-127.8 708,-127.8 708,-127.8 1076.19,-127.8 1076.19,-127.8"/>
<polygon fill="black" stroke="black" points="1076.19,-131.3 1086.19,-127.8 1076.19,-124.3 1076.19,-131.3"/>
</g>
<!-- TodoDetailsComponent -->
<g id="node9" class="node">
<title>TodoDetailsComponent</title>
<polygon fill="#ffffb3" stroke="black" points="634.04,-84.8 483.96,-84.8 483.96,-48.8 634.04,-48.8 634.04,-84.8"/>
<text text-anchor="middle" x="559" y="-62.6" font-family="Times,serif" font-size="14.00">TodoDetailsComponent</text>
</g>
<!-- TodoDetailsComponent&#45;&gt;AppModule -->
<g id="edge9" class="edge">
<title>TodoDetailsComponent&#45;&gt;AppModule</title>
<path fill="none" stroke="black" d="M559,-84.91C559,-104.14 559,-131.8 559,-131.8 559,-131.8 1076.16,-131.8 1076.16,-131.8"/>
<polygon fill="black" stroke="black" points="1076.16,-135.3 1086.16,-131.8 1076.16,-128.3 1076.16,-135.3"/>
</g>
<!-- TodosComponent -->
<g id="node10" class="node">
<title>TodosComponent</title>
<polygon fill="#ffffb3" stroke="black" points="466.33,-84.8 349.67,-84.8 349.67,-48.8 466.33,-48.8 466.33,-84.8"/>
<text text-anchor="middle" x="408" y="-62.6" font-family="Times,serif" font-size="14.00">TodosComponent</text>
</g>
<!-- TodosComponent&#45;&gt;AppModule -->
<g id="edge10" class="edge">
<title>TodosComponent&#45;&gt;AppModule</title>
<path fill="none" stroke="black" d="M408,-84.83C408,-105.57 408,-136.8 408,-136.8 408,-136.8 1076.18,-136.8 1076.18,-136.8"/>
<polygon fill="black" stroke="black" points="1076.18,-140.3 1086.18,-136.8 1076.18,-133.3 1076.18,-140.3"/>
</g>
<!-- UserAgentComponent -->
<g id="node11" class="node">
<title>UserAgentComponent</title>
<polygon fill="#ffffb3" stroke="black" points="331.98,-84.8 190.02,-84.8 190.02,-48.8 331.98,-48.8 331.98,-84.8"/>
<text text-anchor="middle" x="261" y="-62.6" font-family="Times,serif" font-size="14.00">UserAgentComponent</text>
</g>
<!-- UserAgentComponent&#45;&gt;AppModule -->
<g id="edge11" class="edge">
<title>UserAgentComponent&#45;&gt;AppModule</title>
<path fill="none" stroke="black" d="M261,-85.09C261,-107.01 261,-140.8 261,-140.8 261,-140.8 1076.18,-140.8 1076.18,-140.8"/>
<polygon fill="black" stroke="black" points="1076.18,-144.3 1086.18,-140.8 1076.18,-137.3 1076.18,-144.3"/>
</g>
<!-- UserDetailsComponent -->
<g id="node12" class="node">
<title>UserDetailsComponent</title>
<polygon fill="#ffffb3" stroke="black" points="171.92,-84.8 24.08,-84.8 24.08,-48.8 171.92,-48.8 171.92,-84.8"/>
<text text-anchor="middle" x="98" y="-62.6" font-family="Times,serif" font-size="14.00">UserDetailsComponent</text>
</g>
<!-- UserDetailsComponent&#45;&gt;AppModule -->
<g id="edge12" class="edge">
<title>UserDetailsComponent&#45;&gt;AppModule</title>
<path fill="none" stroke="black" d="M98,-85.12C98,-108.46 98,-145.8 98,-145.8 98,-145.8 1076.03,-145.8 1076.03,-145.8"/>
<polygon fill="black" stroke="black" points="1076.03,-149.3 1086.03,-145.8 1076.03,-142.3 1076.03,-149.3"/>
</g>
<!-- AppComponent  -->
<g id="node15" class="node">
<title>AppComponent </title>
<polygon fill="#80b1d3" stroke="black" points="1182.44,-214.8 1073.56,-214.8 1073.56,-178.8 1182.44,-178.8 1182.44,-214.8"/>
<text text-anchor="middle" x="1128" y="-192.6" font-family="Times,serif" font-size="14.00">AppComponent </text>
</g>
<!-- AppModule&#45;&gt;AppComponent  -->
<g id="edge14" class="edge">
<title>AppModule&#45;&gt;AppComponent </title>
<path fill="none" stroke="black" stroke-dasharray="1,5" d="M1128,-149.91C1128,-149.91 1128,-168.79 1128,-168.79"/>
<polygon fill="black" stroke="black" points="1124.5,-168.79 1128,-178.79 1131.5,-168.79 1124.5,-168.79"/>
</g>
<!-- AppRoutingModule -->
<g id="node14" class="node">
<title>AppRoutingModule</title>
<polygon fill="#8dd3c7" stroke="black" points="1895.28,-84.8 1892.28,-88.8 1871.28,-88.8 1868.28,-84.8 1766.72,-84.8 1766.72,-48.8 1895.28,-48.8 1895.28,-84.8"/>
<text text-anchor="middle" x="1831" y="-62.6" font-family="Times,serif" font-size="14.00">AppRoutingModule</text>
</g>
<!-- AppRoutingModule&#45;&gt;AppModule -->
<g id="edge13" class="edge">
<title>AppRoutingModule&#45;&gt;AppModule</title>
<path fill="none" stroke="black" d="M1831,-84.83C1831,-105.57 1831,-136.8 1831,-136.8 1831,-136.8 1179.87,-136.8 1179.87,-136.8"/>
<polygon fill="black" stroke="black" points="1179.87,-133.3 1169.87,-136.8 1179.87,-140.3 1179.87,-133.3"/>
</g>
<!-- AuthInterceptor -->
<g id="node16" class="node">
<title>AuthInterceptor</title>
<ellipse fill="#fdb462" stroke="black" cx="1992" cy="-66.8" rx="72.92" ry="18"/>
<text text-anchor="middle" x="1992" y="-62.6" font-family="Times,serif" font-size="14.00">AuthInterceptor</text>
</g>
<!-- AuthInterceptor&#45;&gt;AppModule -->
<g id="edge15" class="edge">
<title>AuthInterceptor&#45;&gt;AppModule</title>
<path fill="none" stroke="black" d="M1967.76,-83.96C1967.76,-105.82 1967.76,-140.8 1967.76,-140.8 1967.76,-140.8 1179.93,-140.8 1179.93,-140.8"/>
<polygon fill="black" stroke="black" points="1179.93,-137.3 1169.93,-140.8 1179.93,-144.3 1179.93,-137.3"/>
</g>
<!-- AuthInterceptor&#45;&gt;AppModule -->
<g id="edge16" class="edge">
<title>AuthInterceptor&#45;&gt;AppModule</title>
<path fill="none" stroke="black" d="M2016.24,-83.94C2016.24,-107.18 2016.24,-145.8 2016.24,-145.8 2016.24,-145.8 1179.95,-145.8 1179.95,-145.8"/>
<polygon fill="black" stroke="black" points="1179.95,-142.3 1169.95,-145.8 1179.95,-149.3 1179.95,-142.3"/>
</g>
</g>
</svg>
