<?xml version="1.0" encoding="UTF-8" standalone="no"?>
<!DOCTYPE svg PUBLIC "-//W3C//DTD SVG 1.1//EN"
 "http://www.w3.org/Graphics/SVG/1.1/DTD/svg11.dtd">
<!-- Generated by graphviz version 5.0.0 (20220707.1540)
 -->
<!-- Title: dependencies Pages: 1 -->
<svg width="1317pt" height="247pt"
 viewBox="0.00 0.00 1317.00 246.80" xmlns="http://www.w3.org/2000/svg" xmlns:xlink="http://www.w3.org/1999/xlink">
<g id="graph0" class="graph" transform="scale(1 1) rotate(0) translate(4 242.8)">
<title>dependencies</title>
<polygon fill="white" stroke="transparent" points="-4,4 -4,-242.8 1313,-242.8 1313,4 -4,4"/>
<text text-anchor="middle" x="654.5" y="-8.2" font-family="sans-serif" font-size="14.00">dependencies</text>
<g id="clust1" class="cluster">
<title>cluster_AppModule</title>
<polygon fill="none" stroke="black" stroke-dasharray="1,5" points="8,-32.8 8,-230.8 1301,-230.8 1301,-32.8 8,-32.8"/>
</g>
<g id="clust2" class="cluster">
<title>cluster_AppModule_declarations</title>
<polygon fill="none" stroke="black" points="168,-40.8 168,-92.8 1293,-92.8 1293,-40.8 168,-40.8"/>
</g>
<g id="clust11" class="cluster">
<title>cluster_AppModule_imports</title>
<polygon fill="none" stroke="black" points="16,-40.8 16,-92.8 160,-92.8 160,-40.8 16,-40.8"/>
</g>
<g id="clust13" class="cluster">
<title>cluster_AppModule_bootstrap</title>
<polygon fill="none" stroke="black" points="609,-170.8 609,-222.8 733,-222.8 733,-170.8 609,-170.8"/>
</g>
<!-- AppComponent -->
<g id="node1" class="node">
<title>AppComponent</title>
<polygon fill="#ffffb3" stroke="black" points="1284.94,-84.8 1179.06,-84.8 1179.06,-48.8 1284.94,-48.8 1284.94,-84.8"/>
<text text-anchor="middle" x="1232" y="-62.6" font-family="Times,serif" font-size="14.00">AppComponent</text>
</g>
<!-- AppModule -->
<g id="node9" class="node">
<title>AppModule</title>
<polygon fill="#8dd3c7" stroke="black" points="712.66,-149.8 709.66,-153.8 688.66,-153.8 685.66,-149.8 629.34,-149.8 629.34,-113.8 712.66,-113.8 712.66,-149.8"/>
<text text-anchor="middle" x="671" y="-127.6" font-family="Times,serif" font-size="14.00">AppModule</text>
</g>
<!-- AppComponent&#45;&gt;AppModule -->
<g id="edge1" class="edge">
<title>AppComponent&#45;&gt;AppModule</title>
<path fill="none" stroke="black" d="M1232,-84.81C1232,-107.29 1232,-142.8 1232,-142.8 1232,-142.8 722.71,-142.8 722.71,-142.8"/>
<polygon fill="black" stroke="black" points="722.71,-139.3 712.71,-142.8 722.71,-146.3 722.71,-139.3"/>
</g>
<!-- LoginComponent -->
<g id="node2" class="node">
<title>LoginComponent</title>
<polygon fill="#ffffb3" stroke="black" points="1161.27,-84.8 1046.73,-84.8 1046.73,-48.8 1161.27,-48.8 1161.27,-84.8"/>
<text text-anchor="middle" x="1104" y="-62.6" font-family="Times,serif" font-size="14.00">LoginComponent</text>
</g>
<!-- LoginComponent&#45;&gt;AppModule -->
<g id="edge2" class="edge">
<title>LoginComponent&#45;&gt;AppModule</title>
<path fill="none" stroke="black" d="M1104,-84.93C1104,-105.37 1104,-135.8 1104,-135.8 1104,-135.8 722.91,-135.8 722.91,-135.8"/>
<polygon fill="black" stroke="black" points="722.91,-132.3 712.91,-135.8 722.91,-139.3 722.91,-132.3"/>
</g>
<!-- NavbarComponent -->
<g id="node3" class="node">
<title>NavbarComponent</title>
<polygon fill="#ffffb3" stroke="black" points="1028.03,-84.8 905.97,-84.8 905.97,-48.8 1028.03,-48.8 1028.03,-84.8"/>
<text text-anchor="middle" x="967" y="-62.6" font-family="Times,serif" font-size="14.00">NavbarComponent</text>
</g>
<!-- NavbarComponent&#45;&gt;AppModule -->
<g id="edge3" class="edge">
<title>NavbarComponent&#45;&gt;AppModule</title>
<path fill="none" stroke="black" d="M967,-85.07C967,-103.36 967,-128.8 967,-128.8 967,-128.8 722.78,-128.8 722.78,-128.8"/>
<polygon fill="black" stroke="black" points="722.78,-125.3 712.78,-128.8 722.78,-132.3 722.78,-125.3"/>
</g>
<!-- NotfoundComponent -->
<g id="node4" class="node">
<title>NotfoundComponent</title>
<polygon fill="#ffffb3" stroke="black" points="887.49,-84.8 752.51,-84.8 752.51,-48.8 887.49,-48.8 887.49,-84.8"/>
<text text-anchor="middle" x="820" y="-62.6" font-family="Times,serif" font-size="14.00">NotfoundComponent</text>
</g>
<!-- NotfoundComponent&#45;&gt;AppModule -->
<g id="edge4" class="edge">
<title>NotfoundComponent&#45;&gt;AppModule</title>
<path fill="none" stroke="black" d="M820,-84.81C820,-100.85 820,-121.8 820,-121.8 820,-121.8 722.9,-121.8 722.9,-121.8"/>
<polygon fill="black" stroke="black" points="722.9,-118.3 712.9,-121.8 722.9,-125.3 722.9,-118.3"/>
</g>
<!-- RegisterComponent -->
<g id="node5" class="node">
<title>RegisterComponent</title>
<polygon fill="#ffffb3" stroke="black" points="734.99,-84.8 607.01,-84.8 607.01,-48.8 734.99,-48.8 734.99,-84.8"/>
<text text-anchor="middle" x="671" y="-62.6" font-family="Times,serif" font-size="14.00">RegisterComponent</text>
</g>
<!-- RegisterComponent&#45;&gt;AppModule -->
<g id="edge5" class="edge">
<title>RegisterComponent&#45;&gt;AppModule</title>
<path fill="none" stroke="black" d="M671,-84.91C671,-84.91 671,-103.79 671,-103.79"/>
<polygon fill="black" stroke="black" points="667.5,-103.79 671,-113.79 674.5,-103.79 667.5,-103.79"/>
</g>
<!-- TodoComponent -->
<g id="node6" class="node">
<title>TodoComponent</title>
<polygon fill="#ffffb3" stroke="black" points="589.38,-84.8 478.62,-84.8 478.62,-48.8 589.38,-48.8 589.38,-84.8"/>
<text text-anchor="middle" x="534" y="-62.6" font-family="Times,serif" font-size="14.00">TodoComponent</text>
</g>
<!-- TodoComponent&#45;&gt;AppModule -->
<g id="edge6" class="edge">
<title>TodoComponent&#45;&gt;AppModule</title>
<path fill="none" stroke="black" d="M534,-84.81C534,-100.85 534,-121.8 534,-121.8 534,-121.8 619.15,-121.8 619.15,-121.8"/>
<polygon fill="black" stroke="black" points="619.15,-125.3 629.15,-121.8 619.15,-118.3 619.15,-125.3"/>
</g>
<!-- TodoDetailsComponent -->
<g id="node7" class="node">
<title>TodoDetailsComponent</title>
<polygon fill="#ffffb3" stroke="black" points="460.04,-84.8 309.96,-84.8 309.96,-48.8 460.04,-48.8 460.04,-84.8"/>
<text text-anchor="middle" x="385" y="-62.6" font-family="Times,serif" font-size="14.00">TodoDetailsComponent</text>
</g>
<!-- TodoDetailsComponent&#45;&gt;AppModule -->
<g id="edge7" class="edge">
<title>TodoDetailsComponent&#45;&gt;AppModule</title>
<path fill="none" stroke="black" d="M385,-85.07C385,-103.36 385,-128.8 385,-128.8 385,-128.8 619.11,-128.8 619.11,-128.8"/>
<polygon fill="black" stroke="black" points="619.11,-132.3 629.11,-128.8 619.11,-125.3 619.11,-132.3"/>
</g>
<!-- TodosComponent -->
<g id="node8" class="node">
<title>TodosComponent</title>
<polygon fill="#ffffb3" stroke="black" points="292.33,-84.8 175.67,-84.8 175.67,-48.8 292.33,-48.8 292.33,-84.8"/>
<text text-anchor="middle" x="234" y="-62.6" font-family="Times,serif" font-size="14.00">TodosComponent</text>
</g>
<!-- TodosComponent&#45;&gt;AppModule -->
<g id="edge8" class="edge">
<title>TodosComponent&#45;&gt;AppModule</title>
<path fill="none" stroke="black" d="M234,-84.93C234,-105.37 234,-135.8 234,-135.8 234,-135.8 619.1,-135.8 619.1,-135.8"/>
<polygon fill="black" stroke="black" points="619.1,-139.3 629.1,-135.8 619.1,-132.3 619.1,-139.3"/>
</g>
<!-- AppComponent  -->
<g id="node11" class="node">
<title>AppComponent </title>
<polygon fill="#80b1d3" stroke="black" points="725.44,-214.8 616.56,-214.8 616.56,-178.8 725.44,-178.8 725.44,-214.8"/>
<text text-anchor="middle" x="671" y="-192.6" font-family="Times,serif" font-size="14.00">AppComponent </text>
</g>
<!-- AppModule&#45;&gt;AppComponent  -->
<g id="edge10" class="edge">
<title>AppModule&#45;&gt;AppComponent </title>
<path fill="none" stroke="black" stroke-dasharray="1,5" d="M671,-149.91C671,-149.91 671,-168.79 671,-168.79"/>
<polygon fill="black" stroke="black" points="667.5,-168.79 671,-178.79 674.5,-168.79 667.5,-168.79"/>
</g>
<!-- AppRoutingModule -->
<g id="node10" class="node">
<title>AppRoutingModule</title>
<polygon fill="#8dd3c7" stroke="black" points="152.28,-84.8 149.28,-88.8 128.28,-88.8 125.28,-84.8 23.72,-84.8 23.72,-48.8 152.28,-48.8 152.28,-84.8"/>
<text text-anchor="middle" x="88" y="-62.6" font-family="Times,serif" font-size="14.00">AppRoutingModule</text>
</g>
<!-- AppRoutingModule&#45;&gt;AppModule -->
<g id="edge9" class="edge">
<title>AppRoutingModule&#45;&gt;AppModule</title>
<path fill="none" stroke="black" d="M88,-84.81C88,-107.29 88,-142.8 88,-142.8 88,-142.8 619.07,-142.8 619.07,-142.8"/>
<polygon fill="black" stroke="black" points="619.07,-146.3 629.07,-142.8 619.07,-139.3 619.07,-146.3"/>
</g>
</g>
</svg>
