<?xml version="1.0" encoding="UTF-8" standalone="no"?>
<!DOCTYPE svg PUBLIC "-//W3C//DTD SVG 1.1//EN"
 "http://www.w3.org/Graphics/SVG/1.1/DTD/svg11.dtd">
<!-- Generated by graphviz version 5.0.0 (20220707.1540)
 -->
<!-- Title: dependencies Pages: 1 -->
<svg width="2097pt" height="247pt"
 viewBox="0.00 0.00 2097.00 246.80" xmlns="http://www.w3.org/2000/svg" xmlns:xlink="http://www.w3.org/1999/xlink">
<g id="graph0" class="graph" transform="scale(1 1) rotate(0) translate(4 242.8)">
<title>dependencies</title>
<polygon fill="white" stroke="transparent" points="-4,4 -4,-242.8 2093,-242.8 2093,4 -4,4"/>
<text text-anchor="middle" x="1044.5" y="-8.2" font-family="sans-serif" font-size="14.00">dependencies</text>
<g id="clust1" class="cluster">
<title>cluster_AppModule</title>
<polygon fill="none" stroke="black" stroke-dasharray="1,5" points="8,-32.8 8,-230.8 2081,-230.8 2081,-32.8 8,-32.8"/>
</g>
<g id="clust2" class="cluster">
<title>cluster_AppModule_declarations</title>
<polygon fill="none" stroke="black" points="338,-40.8 338,-92.8 2073,-92.8 2073,-40.8 338,-40.8"/>
</g>
<g id="clust15" class="cluster">
<title>cluster_AppModule_imports</title>
<polygon fill="none" stroke="black" points="186,-40.8 186,-92.8 330,-92.8 330,-40.8 186,-40.8"/>
</g>
<g id="clust17" class="cluster">
<title>cluster_AppModule_bootstrap</title>
<polygon fill="none" stroke="black" points="968,-170.8 968,-222.8 1092,-222.8 1092,-170.8 968,-170.8"/>
</g>
<g id="clust18" class="cluster">
<title>cluster_AppModule_providers</title>
<polygon fill="none" stroke="black" points="16,-40.8 16,-92.8 178,-92.8 178,-40.8 16,-40.8"/>
</g>
<!-- AboutUsComponent -->
<g id="node1" class="node">
<title>AboutUsComponent</title>
<polygon fill="#ffffb3" stroke="black" points="2064.89,-84.8 1933.11,-84.8 1933.11,-48.8 2064.89,-48.8 2064.89,-84.8"/>
<text text-anchor="middle" x="1999" y="-62.6" font-family="Times,serif" font-size="14.00">AboutUsComponent</text>
</g>
<!-- AppModule -->
<g id="node13" class="node">
<title>AppModule</title>
<polygon fill="#8dd3c7" stroke="black" points="1071.66,-149.8 1068.66,-153.8 1047.66,-153.8 1044.66,-149.8 988.34,-149.8 988.34,-113.8 1071.66,-113.8 1071.66,-149.8"/>
<text text-anchor="middle" x="1030" y="-127.6" font-family="Times,serif" font-size="14.00">AppModule</text>
</g>
<!-- AboutUsComponent&#45;&gt;AppModule -->
<g id="edge1" class="edge">
<title>AboutUsComponent&#45;&gt;AppModule</title>
<path fill="none" stroke="black" d="M1999,-85.12C1999,-108.46 1999,-145.8 1999,-145.8 1999,-145.8 1081.95,-145.8 1081.95,-145.8"/>
<polygon fill="black" stroke="black" points="1081.95,-142.3 1071.95,-145.8 1081.95,-149.3 1081.95,-142.3"/>
</g>
<!-- AppComponent -->
<g id="node2" class="node">
<title>AppComponent</title>
<polygon fill="#ffffb3" stroke="black" points="1914.94,-84.8 1809.06,-84.8 1809.06,-48.8 1914.94,-48.8 1914.94,-84.8"/>
<text text-anchor="middle" x="1862" y="-62.6" font-family="Times,serif" font-size="14.00">AppComponent</text>
</g>
<!-- AppComponent&#45;&gt;AppModule -->
<g id="edge2" class="edge">
<title>AppComponent&#45;&gt;AppModule</title>
<path fill="none" stroke="black" d="M1862,-85.09C1862,-107.01 1862,-140.8 1862,-140.8 1862,-140.8 1081.83,-140.8 1081.83,-140.8"/>
<polygon fill="black" stroke="black" points="1081.83,-137.3 1071.83,-140.8 1081.83,-144.3 1081.83,-137.3"/>
</g>
<!-- LoginComponent -->
<g id="node3" class="node">
<title>LoginComponent</title>
<polygon fill="#ffffb3" stroke="black" points="1791.27,-84.8 1676.73,-84.8 1676.73,-48.8 1791.27,-48.8 1791.27,-84.8"/>
<text text-anchor="middle" x="1734" y="-62.6" font-family="Times,serif" font-size="14.00">LoginComponent</text>
</g>
<!-- LoginComponent&#45;&gt;AppModule -->
<g id="edge3" class="edge">
<title>LoginComponent&#45;&gt;AppModule</title>
<path fill="none" stroke="black" d="M1734,-84.83C1734,-105.57 1734,-136.8 1734,-136.8 1734,-136.8 1081.67,-136.8 1081.67,-136.8"/>
<polygon fill="black" stroke="black" points="1081.67,-133.3 1071.67,-136.8 1081.67,-140.3 1081.67,-133.3"/>
</g>
<!-- NavbarComponent -->
<g id="node4" class="node">
<title>NavbarComponent</title>
<polygon fill="#ffffb3" stroke="black" points="1658.03,-84.8 1535.97,-84.8 1535.97,-48.8 1658.03,-48.8 1658.03,-84.8"/>
<text text-anchor="middle" x="1597" y="-62.6" font-family="Times,serif" font-size="14.00">NavbarComponent</text>
</g>
<!-- NavbarComponent&#45;&gt;AppModule -->
<g id="edge4" class="edge">
<title>NavbarComponent&#45;&gt;AppModule</title>
<path fill="none" stroke="black" d="M1597,-84.91C1597,-104.14 1597,-131.8 1597,-131.8 1597,-131.8 1081.69,-131.8 1081.69,-131.8"/>
<polygon fill="black" stroke="black" points="1081.69,-128.3 1071.69,-131.8 1081.69,-135.3 1081.69,-128.3"/>
</g>
<!-- NotfoundComponent -->
<g id="node5" class="node">
<title>NotfoundComponent</title>
<polygon fill="#ffffb3" stroke="black" points="1517.49,-84.8 1382.51,-84.8 1382.51,-48.8 1517.49,-48.8 1517.49,-84.8"/>
<text text-anchor="middle" x="1450" y="-62.6" font-family="Times,serif" font-size="14.00">NotfoundComponent</text>
</g>
<!-- NotfoundComponent&#45;&gt;AppModule -->
<g id="edge5" class="edge">
<title>NotfoundComponent&#45;&gt;AppModule</title>
<path fill="none" stroke="black" d="M1450,-85.1C1450,-103.07 1450,-127.8 1450,-127.8 1450,-127.8 1081.81,-127.8 1081.81,-127.8"/>
<polygon fill="black" stroke="black" points="1081.81,-124.3 1071.81,-127.8 1081.81,-131.3 1081.81,-124.3"/>
</g>
<!-- QouteComponent -->
<g id="node6" class="node">
<title>QouteComponent</title>
<polygon fill="#ffffb3" stroke="black" points="1364.55,-84.8 1249.45,-84.8 1249.45,-48.8 1364.55,-48.8 1364.55,-84.8"/>
<text text-anchor="middle" x="1307" y="-62.6" font-family="Times,serif" font-size="14.00">QouteComponent</text>
</g>
<!-- QouteComponent&#45;&gt;AppModule -->
<g id="edge6" class="edge">
<title>QouteComponent&#45;&gt;AppModule</title>
<path fill="none" stroke="black" d="M1307,-84.83C1307,-101.2 1307,-122.8 1307,-122.8 1307,-122.8 1081.77,-122.8 1081.77,-122.8"/>
<polygon fill="black" stroke="black" points="1081.77,-119.3 1071.77,-122.8 1081.77,-126.3 1081.77,-119.3"/>
</g>
<!-- RegisterComponent -->
<g id="node7" class="node">
<title>RegisterComponent</title>
<polygon fill="#ffffb3" stroke="black" points="1230.99,-84.8 1103.01,-84.8 1103.01,-48.8 1230.99,-48.8 1230.99,-84.8"/>
<text text-anchor="middle" x="1167" y="-62.6" font-family="Times,serif" font-size="14.00">RegisterComponent</text>
</g>
<!-- RegisterComponent&#45;&gt;AppModule -->
<g id="edge7" class="edge">
<title>RegisterComponent&#45;&gt;AppModule</title>
<path fill="none" stroke="black" d="M1167,-84.99C1167,-99.98 1167,-118.8 1167,-118.8 1167,-118.8 1081.85,-118.8 1081.85,-118.8"/>
<polygon fill="black" stroke="black" points="1081.85,-115.3 1071.85,-118.8 1081.85,-122.3 1081.85,-115.3"/>
</g>
<!-- TodoComponent -->
<g id="node8" class="node">
<title>TodoComponent</title>
<polygon fill="#ffffb3" stroke="black" points="1085.38,-84.8 974.62,-84.8 974.62,-48.8 1085.38,-48.8 1085.38,-84.8"/>
<text text-anchor="middle" x="1030" y="-62.6" font-family="Times,serif" font-size="14.00">TodoComponent</text>
</g>
<!-- TodoComponent&#45;&gt;AppModule -->
<g id="edge8" class="edge">
<title>TodoComponent&#45;&gt;AppModule</title>
<path fill="none" stroke="black" d="M1030,-84.91C1030,-84.91 1030,-103.79 1030,-103.79"/>
<polygon fill="black" stroke="black" points="1026.5,-103.79 1030,-113.79 1033.5,-103.79 1026.5,-103.79"/>
</g>
<!-- TodoDetailsComponent -->
<g id="node9" class="node">
<title>TodoDetailsComponent</title>
<polygon fill="#ffffb3" stroke="black" points="956.04,-84.8 805.96,-84.8 805.96,-48.8 956.04,-48.8 956.04,-84.8"/>
<text text-anchor="middle" x="881" y="-62.6" font-family="Times,serif" font-size="14.00">TodoDetailsComponent</text>
</g>
<!-- TodoDetailsComponent&#45;&gt;AppModule -->
<g id="edge9" class="edge">
<title>TodoDetailsComponent&#45;&gt;AppModule</title>
<path fill="none" stroke="black" d="M881,-84.99C881,-99.98 881,-118.8 881,-118.8 881,-118.8 978.1,-118.8 978.1,-118.8"/>
<polygon fill="black" stroke="black" points="978.1,-122.3 988.1,-118.8 978.1,-115.3 978.1,-122.3"/>
</g>
<!-- TodosComponent -->
<g id="node10" class="node">
<title>TodosComponent</title>
<polygon fill="#ffffb3" stroke="black" points="788.33,-84.8 671.67,-84.8 671.67,-48.8 788.33,-48.8 788.33,-84.8"/>
<text text-anchor="middle" x="730" y="-62.6" font-family="Times,serif" font-size="14.00">TodosComponent</text>
</g>
<!-- TodosComponent&#45;&gt;AppModule -->
<g id="edge10" class="edge">
<title>TodosComponent&#45;&gt;AppModule</title>
<path fill="none" stroke="black" d="M730,-84.83C730,-101.2 730,-122.8 730,-122.8 730,-122.8 978.29,-122.8 978.29,-122.8"/>
<polygon fill="black" stroke="black" points="978.29,-126.3 988.29,-122.8 978.29,-119.3 978.29,-126.3"/>
</g>
<!-- UserAgentComponent -->
<g id="node11" class="node">
<title>UserAgentComponent</title>
<polygon fill="#ffffb3" stroke="black" points="653.98,-84.8 512.02,-84.8 512.02,-48.8 653.98,-48.8 653.98,-84.8"/>
<text text-anchor="middle" x="583" y="-62.6" font-family="Times,serif" font-size="14.00">UserAgentComponent</text>
</g>
<!-- UserAgentComponent&#45;&gt;AppModule -->
<g id="edge11" class="edge">
<title>UserAgentComponent&#45;&gt;AppModule</title>
<path fill="none" stroke="black" d="M583,-85.1C583,-103.07 583,-127.8 583,-127.8 583,-127.8 977.95,-127.8 977.95,-127.8"/>
<polygon fill="black" stroke="black" points="977.95,-131.3 987.95,-127.8 977.95,-124.3 977.95,-131.3"/>
</g>
<!-- UserDetailsComponent -->
<g id="node12" class="node">
<title>UserDetailsComponent</title>
<polygon fill="#ffffb3" stroke="black" points="493.92,-84.8 346.08,-84.8 346.08,-48.8 493.92,-48.8 493.92,-84.8"/>
<text text-anchor="middle" x="420" y="-62.6" font-family="Times,serif" font-size="14.00">UserDetailsComponent</text>
</g>
<!-- UserDetailsComponent&#45;&gt;AppModule -->
<g id="edge12" class="edge">
<title>UserDetailsComponent&#45;&gt;AppModule</title>
<path fill="none" stroke="black" d="M420,-84.91C420,-104.14 420,-131.8 420,-131.8 420,-131.8 978.07,-131.8 978.07,-131.8"/>
<polygon fill="black" stroke="black" points="978.07,-135.3 988.07,-131.8 978.07,-128.3 978.07,-135.3"/>
</g>
<!-- AppComponent  -->
<g id="node15" class="node">
<title>AppComponent </title>
<polygon fill="#80b1d3" stroke="black" points="1084.44,-214.8 975.56,-214.8 975.56,-178.8 1084.44,-178.8 1084.44,-214.8"/>
<text text-anchor="middle" x="1030" y="-192.6" font-family="Times,serif" font-size="14.00">AppComponent </text>
</g>
<!-- AppModule&#45;&gt;AppComponent  -->
<g id="edge14" class="edge">
<title>AppModule&#45;&gt;AppComponent </title>
<path fill="none" stroke="black" stroke-dasharray="1,5" d="M1030,-149.91C1030,-149.91 1030,-168.79 1030,-168.79"/>
<polygon fill="black" stroke="black" points="1026.5,-168.79 1030,-178.79 1033.5,-168.79 1026.5,-168.79"/>
</g>
<!-- AppRoutingModule -->
<g id="node14" class="node">
<title>AppRoutingModule</title>
<polygon fill="#8dd3c7" stroke="black" points="322.28,-84.8 319.28,-88.8 298.28,-88.8 295.28,-84.8 193.72,-84.8 193.72,-48.8 322.28,-48.8 322.28,-84.8"/>
<text text-anchor="middle" x="258" y="-62.6" font-family="Times,serif" font-size="14.00">AppRoutingModule</text>
</g>
<!-- AppRoutingModule&#45;&gt;AppModule -->
<g id="edge13" class="edge">
<title>AppRoutingModule&#45;&gt;AppModule</title>
<path fill="none" stroke="black" d="M258,-84.83C258,-105.57 258,-136.8 258,-136.8 258,-136.8 978.22,-136.8 978.22,-136.8"/>
<polygon fill="black" stroke="black" points="978.22,-140.3 988.22,-136.8 978.22,-133.3 978.22,-140.3"/>
</g>
<!-- AuthInterceptor -->
<g id="node16" class="node">
<title>AuthInterceptor</title>
<ellipse fill="#fdb462" stroke="black" cx="97" cy="-66.8" rx="72.92" ry="18"/>
<text text-anchor="middle" x="97" y="-62.6" font-family="Times,serif" font-size="14.00">AuthInterceptor</text>
</g>
<!-- AuthInterceptor&#45;&gt;AppModule -->
<g id="edge15" class="edge">
<title>AuthInterceptor&#45;&gt;AppModule</title>
<path fill="none" stroke="black" d="M121.24,-83.96C121.24,-105.82 121.24,-140.8 121.24,-140.8 121.24,-140.8 978.29,-140.8 978.29,-140.8"/>
<polygon fill="black" stroke="black" points="978.29,-144.3 988.29,-140.8 978.29,-137.3 978.29,-144.3"/>
</g>
<!-- AuthInterceptor&#45;&gt;AppModule -->
<g id="edge16" class="edge">
<title>AuthInterceptor&#45;&gt;AppModule</title>
<path fill="none" stroke="black" d="M72.76,-83.94C72.76,-107.18 72.76,-145.8 72.76,-145.8 72.76,-145.8 978.25,-145.8 978.25,-145.8"/>
<polygon fill="black" stroke="black" points="978.25,-149.3 988.25,-145.8 978.25,-142.3 978.25,-149.3"/>
</g>
</g>
</svg>
